<?xml version="1.0" encoding="UTF-8"?>
<!DOCTYPE svg PUBLIC "-//W3C//DTD SVG 1.1//EN" "http://www.w3.org/Graphics/SVG/1.1/DTD/svg11.dtd">
<!-- Creator: CorelDRAW -->
<svg xmlns="http://www.w3.org/2000/svg" xml:space="preserve" width="100%" height="100%" style="shape-rendering:geometricPrecision; text-rendering:geometricPrecision; image-rendering:optimizeQuality; fill-rule:evenodd; clip-rule:evenodd"
viewBox="0 0 6.82666 6.82666"
 xmlns:xlink="http://www.w3.org/1999/xlink">
 <defs>
  <style type="text/css">
   <![CDATA[
    .fil1 {fill:#FEFEFE;fill-rule:nonzero}
    .fil0 {fill:url(#id0)}
   ]]>
  </style>
  <linearGradient id="id0" gradientUnits="userSpaceOnUse" x1="1.68784" y1="0.424697" x2="5.13882" y2="6.40196">
   <stop offset="0" style="stop-color:#444FF5"/>
   <stop offset="0.490196" style="stop-color:#21BFDB"/>
   <stop offset="1" style="stop-color:#1DABB6"/>
  </linearGradient>
 </defs>
 <g id="Layer_x0020_1">
  <metadata id="CorelCorpID_0Corel-Layer"/>
  <path class="fil0" d="M6.36936 1.70667c0.942567,1.63257 0.383209,3.72013 -1.24937,4.6627 -1.63257,0.942567 -3.72013,0.383209 -4.6627,-1.24937 -0.942567,-1.63257 -0.383209,-3.72013 1.24937,-4.6627 1.63257,-0.942567 3.72013,-0.383209 4.6627,1.24937z"/>
  <g id="_435920816">
   <path id="_435921824" class="fil1" d="M4.60896 1.87165l0.36861 0.638461 0.00011811 -7.08661e-005 5.11811e-005 8.26772e-005 0.000145669 -8.26772e-005c0.000811024,0.00140551 0.00156693,0.00283465 0.00227165,0.00427165l0.36948 0.639953 -0.0611457 0.0354134 0.0613386 -0.0354134c0.0195591,0.033878 0.00795276,0.0771929 -0.0259252,0.096752 -0.0011811,0.000685039 -0.00237795,0.00132283 -0.00357874,0.00192913 -0.0271299,0.0164961 -0.0496772,0.0394606 -0.0653622,0.0666378 -0.0157283,0.0272559 -0.0247362,0.0592559 -0.0247362,0.093748 0,0.0344921 0.00900787,0.0664921 0.0247362,0.093748 0.0163661,0.0283543 0.0401969,0.052126 0.0689173,0.068748l8.26772e-005 -0.000145669c0.0338543,0.0195866 0.0454213,0.0629213 0.0258307,0.0967756 -0.000799213,0.00138583 -0.00164567,0.00273622 -0.00252756,0.00404724l-0.369528 0.640035 0.000145669 8.26772e-005c-0.00111024,0.00192126 -0.00229921,0.00376378 -0.00355118,0.00553937l-0.368587 0.638413 -0.0611417 -0.0351378 0.0613386 0.0354134c-0.0195591,0.033874 -0.062878,0.0454803 -0.096752,0.0259252 -0.0012126,-0.000700787 -0.0023937,-0.00143307 -0.00354724,-0.00219291 -0.0128346,-0.00704724 -0.026748,-0.0126654 -0.0415039,-0.0166142 -0.0152756,-0.00408661 -0.0315906,-0.00626772 -0.0486654,-0.00626772 -0.051748,0 -0.0986063,0.0209724 -0.132512,0.054878 -0.0339094,0.0339094 -0.0548819,0.0807638 -0.0548819,0.132512 0,0.0391181 -0.0317126,0.0708268 -0.0708268,0.0708268l-0.743921 0 -0.743921 0c-0.0391142,0 -0.0708268,-0.0317087 -0.0708268,-0.0708268 0,-0.051748 -0.0209724,-0.0986024 -0.0548819,-0.132512 -0.0339055,-0.0339055 -0.0807638,-0.054878 -0.132512,-0.054878 -0.0170748,0 -0.0333898,0.0021811 -0.0486654,0.00626772 -0.016126,0.00431496 -0.0312441,0.010622 -0.0450512,0.0186102l-0.0354134 -0.0611417 0.0354685 0.0613031c-0.0338543,0.0195866 -0.0771811,0.00801969 -0.0967717,-0.0258346 -0.00111811,-0.00193701 -0.00213386,-0.00390157 -0.00305118,-0.0058937l-0.36861 -0.638461 -0.00011811 7.08661e-005 -5.11811e-005 -8.26772e-005 -0.000145669 8.26772e-005c-0.000811024,-0.00140551 -0.00156693,-0.00283465 -0.00227165,-0.00427165l-0.36948 -0.639953 0.0611457 -0.0354134 -0.0613386 0.0354134c-0.0195591,-0.033878 -0.00795276,-0.0771929 0.0259252,-0.096752 0.0011811,-0.000685039 0.00237795,-0.00132283 0.00357874,-0.00192913 0.0271299,-0.0164961 0.0496772,-0.0394606 0.0653622,-0.0666378 0.0157283,-0.0272559 0.0247362,-0.0592559 0.0247362,-0.093748 0,-0.0344921 -0.00900787,-0.0664921 -0.0247362,-0.093748 -0.0163661,-0.0283543 -0.0401969,-0.052126 -0.0689173,-0.068748l-8.26772e-005 0.000145669c-0.0338543,-0.0195866 -0.0454213,-0.0629213 -0.0258307,-0.0967756 0.000799213,-0.00138583 0.00164567,-0.00273622 0.00252756,-0.00404724l0.369528 -0.640035 -0.000145669 -8.26772e-005c0.00111024,-0.00192126 0.00229921,-0.00376378 0.00355118,-0.00553937l0.368587 -0.638413 0.0611417 0.0351378 -0.0613386 -0.0354134c0.0195591,-0.033874 0.062878,-0.0454803 0.096752,-0.0259252 0.0012126,0.000700787 0.0023937,0.00143307 0.00354724,0.00219291 0.0128346,0.00704724 0.026748,0.0126654 0.0415039,0.0166142 0.0152756,0.00408661 0.0315906,0.00626772 0.0486654,0.00626772 0.051748,0 0.0986063,-0.0209724 0.132512,-0.054878 0.0339094,-0.0339094 0.0548819,-0.0807638 0.0548819,-0.132512 0,-0.0391181 0.0317126,-0.0708268 0.0708268,-0.0708268l0.743921 0 0.743921 0c0.0391142,0 0.0708268,0.0317087 0.0708268,0.0708268 0,0.051748 0.0209724,0.0986024 0.0548819,0.132512 0.0339055,0.0339055 0.0807638,0.054878 0.132512,0.054878 0.0170748,0 0.0333898,-0.0021811 0.0486654,-0.00626772 0.016126,-0.00431496 0.0312441,-0.010622 0.0450512,-0.0186102l0.0354134 0.0611417 -0.0354685 -0.0613031c0.0338543,-0.0195866 0.0771811,-0.00801969 0.0967717,0.0258346 0.00111811,0.00193701 0.00213386,0.00390157 0.00305118,0.0058937zm0.307587 0.673803l-0.0611417 0.0351378 -0.340315 -0.589449c-0.00476378,0.00151575 -0.00957874,0.00292913 -0.0144291,0.00422441 -0.0274055,0.00733465 -0.0559764,0.011248 -0.085185,0.011248 -0.0908504,0 -0.173118,-0.0368346 -0.232665,-0.096378 -0.0436102,-0.0436142 -0.0750354,-0.0994094 -0.0887323,-0.161843l-0.680744 0 -0.680744 0c-0.0136969,0.0624331 -0.045122,0.118228 -0.0887323,0.161843 -0.0595472,0.0595433 -0.141815,0.096378 -0.232665,0.096378 -0.0292087,0 -0.0577795,-0.00391339 -0.085185,-0.011248 -0.00485039,-0.00129528 -0.00966535,-0.00270866 -0.0144291,-0.00422441l-0.337098 0.583882c-0.000909449,0.00197244 -0.00191339,0.0039252 -0.00301969,0.00584252l-0.0613386 -0.0354134 0.0611417 0.0354134 -0.340461 0.589689c0.024815,0.0227362 0.0461811,0.0492874 0.063189,0.078752 0.0280472,0.0485984 0.0441024,0.104642 0.0441024,0.164024 0,0.0593819 -0.0160551,0.115425 -0.0441024,0.164024 -0.0170079,0.0294646 -0.038374,0.0560157 -0.063189,0.078752l0.338087 0.585583c0.000897638,0.00133465 0.00175591,0.00269685 0.00257087,0.0041063l-0.0613386 0.0354134 0.0611417 -0.0351378 0.340315 0.589449c0.00476378,-0.00151575 0.00957874,-0.00292913 0.0144291,-0.00422441 0.0274055,-0.00733465 0.0559764,-0.011248 0.085185,-0.011248 0.0908504,0 0.173118,0.0368346 0.232665,0.096378 0.0436102,0.0436142 0.0750354,0.0994094 0.0887323,0.161843l0.680744 0 0.680744 0c0.0136969,-0.0624331 0.045122,-0.118228 0.0887323,-0.161843 0.0595472,-0.0595433 0.141815,-0.096378 0.232665,-0.096378 0.0292087,0 0.0577795,0.00391339 0.085185,0.011248 0.00485039,0.00129528 0.00966535,0.00270866 0.0144291,0.00422441l0.337098 -0.583882c0.000909449,-0.00197244 0.00191339,-0.0039252 0.00301969,-0.00584252l0.0613386 0.0354134 -0.0611417 -0.0354134 0.340461 -0.589689c-0.024815,-0.0227362 -0.0461811,-0.0492874 -0.063189,-0.078752 -0.0280472,-0.0485984 -0.0441024,-0.104642 -0.0441024,-0.164024 0,-0.0593819 0.0160551,-0.115425 0.0441024,-0.164024 0.0170079,-0.0294646 0.038374,-0.0560157 0.063189,-0.078752l-0.338087 -0.585583c-0.000897638,-0.00133465 -0.00175591,-0.00269685 -0.00257087,-0.0041063l0.0613386 -0.0354134z"/>
   <path id="_435921296" class="fil1" d="M1.40904 3.08428c0.0908504,0 0.173118,0.0368386 0.232665,0.0963819 0.0595433,0.0595472 0.0963819,0.141807 0.0963819,0.232665 0,0.0908583 -0.0368386,0.173118 -0.0963819,0.232665 -0.0595472,0.0595433 -0.141815,0.0963819 -0.232665,0.0963819 -0.0908583,0 -0.173114,-0.0368386 -0.232665,-0.0963819 -0.0595433,-0.0595472 -0.096378,-0.141807 -0.096378,-0.232665 0,-0.0908583 0.0368346,-0.173118 0.096378,-0.232665 0.0595512,-0.0595433 0.141807,-0.0963819 0.232665,-0.0963819zm0.132512 0.196535c-0.0339055,-0.0339094 -0.0807598,-0.0548819 -0.132512,-0.0548819 -0.051752,0 -0.0986063,0.0209724 -0.132512,0.0548819 -0.0339094,0.0339055 -0.0548819,0.0807598 -0.0548819,0.132512 0,0.051752 0.0209724,0.0986063 0.0548819,0.132512 0.0339055,0.0339094 0.0807598,0.0548819 0.132512,0.0548819 0.051752,0 0.0986063,-0.0209724 0.132512,-0.0548819 0.0339094,-0.0339055 0.0548819,-0.0807598 0.0548819,-0.132512 0,-0.051752 -0.0209724,-0.0986063 -0.0548819,-0.132512z"/>
   <path id="_435921848" class="fil1" d="M2.41119 4.82005c0.0908504,0 0.173118,0.0368346 0.232665,0.096378 0.0595433,0.0595512 0.0963819,0.141815 0.0963819,0.232665 0,0.0908583 -0.0368386,0.173118 -0.0963819,0.232669 -0.0595472,0.0595433 -0.141815,0.096378 -0.232665,0.096378 -0.0908583,0 -0.173118,-0.0368346 -0.232665,-0.096378 -0.0595433,-0.0595512 -0.0963819,-0.141811 -0.0963819,-0.232669 0,-0.0908504 0.0368386,-0.173114 0.0963819,-0.232665 0.0595472,-0.0595433 0.141807,-0.096378 0.232665,-0.096378zm0.132512 0.196531c-0.0339055,-0.0339055 -0.0807638,-0.054878 -0.132512,-0.054878 -0.051752,0 -0.0986063,0.0209724 -0.132512,0.054878 -0.0339094,0.0339094 -0.0548819,0.0807638 -0.0548819,0.132512 0,0.0517559 0.0209724,0.0986063 0.0548819,0.132516 0.0339055,0.0339055 0.0807598,0.054878 0.132512,0.054878 0.051748,0 0.0986063,-0.0209724 0.132512,-0.054878 0.0339094,-0.0339094 0.0548819,-0.0807598 0.0548819,-0.132516 0,-0.051748 -0.0209724,-0.0986024 -0.0548819,-0.132512z"/>
   <path id="_435920504" class="fil1" d="M2.41119 1.34852c0.0908504,0 0.173118,0.0368346 0.232665,0.096378 0.0595433,0.0595512 0.0963819,0.141811 0.0963819,0.232669 0,0.0908504 -0.0368386,0.173114 -0.0963819,0.232665 -0.0595472,0.0595433 -0.141815,0.096378 -0.232665,0.096378 -0.0908583,0 -0.173118,-0.0368346 -0.232665,-0.096378 -0.0595433,-0.0595512 -0.0963819,-0.141815 -0.0963819,-0.232665 0,-0.0908583 0.0368386,-0.173118 0.0963819,-0.232669 0.0595472,-0.0595433 0.141807,-0.096378 0.232665,-0.096378zm0.132512 0.196531c-0.0339055,-0.0339055 -0.0807638,-0.054878 -0.132512,-0.054878 -0.051752,0 -0.0986063,0.0209724 -0.132512,0.054878 -0.0339094,0.0339094 -0.0548819,0.0807598 -0.0548819,0.132516 0,0.051748 0.0209724,0.0986024 0.0548819,0.132512 0.0339055,0.0339055 0.0807598,0.054878 0.132512,0.054878 0.051748,0 0.0986063,-0.0209724 0.132512,-0.054878 0.0339094,-0.0339094 0.0548819,-0.0807638 0.0548819,-0.132512 0,-0.0517559 -0.0209724,-0.0986063 -0.0548819,-0.132516z"/>
   <path id="_435921008" class="fil1" d="M4.41547 1.34852c0.0908583,0 0.173118,0.0368346 0.232665,0.096378 0.0595433,0.0595512 0.0963819,0.141811 0.0963819,0.232669 0,0.0908504 -0.0368386,0.173114 -0.0963819,0.232665 -0.0595472,0.0595433 -0.141807,0.096378 -0.232665,0.096378 -0.0908504,0 -0.173118,-0.0368346 -0.232665,-0.096378 -0.0595433,-0.0595512 -0.0963819,-0.141815 -0.0963819,-0.232665 0,-0.0908583 0.0368386,-0.173118 0.0963819,-0.232669 0.0595472,-0.0595433 0.141815,-0.096378 0.232665,-0.096378zm0.132512 0.196531c-0.0339055,-0.0339055 -0.0807598,-0.054878 -0.132512,-0.054878 -0.051748,0 -0.0986063,0.0209724 -0.132512,0.054878 -0.0339094,0.0339094 -0.0548819,0.0807598 -0.0548819,0.132516 0,0.051748 0.0209724,0.0986024 0.0548819,0.132512 0.0339055,0.0339055 0.0807638,0.054878 0.132512,0.054878 0.051752,0 0.0986063,-0.0209724 0.132512,-0.054878 0.0339094,-0.0339094 0.0548819,-0.0807638 0.0548819,-0.132512 0,-0.0517559 -0.0209724,-0.0986063 -0.0548819,-0.132516z"/>
   <path id="_435920936" class="fil1" d="M5.41762 3.08428c0.0908583,0 0.173114,0.0368386 0.232665,0.0963819 0.0595433,0.0595472 0.096378,0.141807 0.096378,0.232665 0,0.0908583 -0.0368346,0.173118 -0.096378,0.232665 -0.0595512,0.0595433 -0.141807,0.0963819 -0.232665,0.0963819 -0.0908504,0 -0.173118,-0.0368386 -0.232665,-0.0963819 -0.0595433,-0.0595472 -0.0963819,-0.141807 -0.0963819,-0.232665 0,-0.0908583 0.0368386,-0.173118 0.0963819,-0.232665 0.0595472,-0.0595433 0.141815,-0.0963819 0.232665,-0.0963819zm0.132512 0.196535c-0.0339055,-0.0339094 -0.0807598,-0.0548819 -0.132512,-0.0548819 -0.051752,0 -0.0986063,0.0209724 -0.132512,0.0548819 -0.0339094,0.0339055 -0.0548819,0.0807598 -0.0548819,0.132512 0,0.051752 0.0209724,0.0986063 0.0548819,0.132512 0.0339055,0.0339094 0.0807598,0.0548819 0.132512,0.0548819 0.051752,0 0.0986063,-0.0209724 0.132512,-0.0548819 0.0339094,-0.0339055 0.0548819,-0.0807598 0.0548819,-0.132512 0,-0.051752 -0.0209724,-0.0986063 -0.0548819,-0.132512z"/>
   <path id="_435920600" class="fil1" d="M4.41547 4.82005c0.0908583,0 0.173118,0.0368346 0.232665,0.096378 0.0595433,0.0595512 0.0963819,0.141815 0.0963819,0.232665 0,0.0908583 -0.0368386,0.173118 -0.0963819,0.232669 -0.0595472,0.0595433 -0.141807,0.096378 -0.232665,0.096378 -0.0908504,0 -0.173118,-0.0368346 -0.232665,-0.096378 -0.0595433,-0.0595512 -0.0963819,-0.141811 -0.0963819,-0.232669 0,-0.0908504 0.0368386,-0.173114 0.0963819,-0.232665 0.0595472,-0.0595433 0.141815,-0.096378 0.232665,-0.096378zm0.132512 0.196531c-0.0339055,-0.0339055 -0.0807598,-0.054878 -0.132512,-0.054878 -0.051748,0 -0.0986063,0.0209724 -0.132512,0.054878 -0.0339094,0.0339094 -0.0548819,0.0807638 -0.0548819,0.132512 0,0.0517559 0.0209724,0.0986063 0.0548819,0.132516 0.0339055,0.0339055 0.0807638,0.054878 0.132512,0.054878 0.051752,0 0.0986063,-0.0209724 0.132512,-0.054878 0.0339094,-0.0339094 0.0548819,-0.0807598 0.0548819,-0.132516 0,-0.051748 -0.0209724,-0.0986024 -0.0548819,-0.132512z"/>
   <path id="_435920456" class="fil1" d="M2.81081 3.10425l1.20503 0c0.0391142,0 0.0708228,0.0317087 0.0708228,0.0708228l0 1.06978c0,0.0391142 -0.0317087,0.0708228 -0.0708228,0.0708228l-1.20503 0c-0.0391181,0 -0.0708268,-0.0317087 -0.0708268,-0.0708228l0 -1.06978c0,-0.0391142 0.0317087,-0.0708228 0.0708268,-0.0708228zm1.1342 0.14165l-1.06338 0 0 0.928122 1.06338 0 0 -0.928122z"/>
   <path id="_435920864" class="fil1" d="M3.41333 2.51098c0.129598,0 0.244547,0.0782323 0.325839,0.204862 0.0751378,0.117035 0.121925,0.277685 0.122783,0.454335l0 0 3.93701e-006 0.000228346 0.000271654 0 -7.87402e-006 0.00152756 2.3622e-005 0c7.87402e-006,0.000885827 -7.87402e-006,0.00176772 -3.14961e-005,0.00264567l4.72441e-005 0c0.000271654,0.0391102 -0.0312126,0.0710472 -0.0703228,0.0713189l-0.0005 -3.93701e-006 0 7.87402e-006 -0.756213 0c-0.0391181,0 -0.0708268,-0.0317126 -0.0708268,-0.0708268l2.3622e-005 -0.00177953 -1.1811e-005 0c1.9685e-005,-0.00200787 0.000125984,-0.00399606 0.000307087,-0.00596063 0.00135039,-0.174709 0.0477323,-0.333701 0.122028,-0.450067 0.0813937,-0.127465 0.196665,-0.206287 0.326587,-0.206287zm0.20687 0.281224c-0.055378,-0.0862677 -0.128657,-0.139575 -0.20687,-0.139575 -0.0786339,0 -0.152205,0.0536614 -0.207618,0.140441 -0.0518701,0.0812362 -0.087122,0.189516 -0.097063,0.311177l0.609335 0c-0.0100039,-0.122028 -0.0455315,-0.230654 -0.0977835,-0.312043z"/>
   <path id="_435921200" class="fil1" d="M3.48416 3.65158c0,-0.0391142 -0.0317126,-0.0708268 -0.0708268,-0.0708268 -0.0391142,0 -0.0708268,0.0317126 -0.0708268,0.0708268l0 0.198276c0,0.0391181 0.0317126,0.0708268 0.0708268,0.0708268 0.0391142,0 0.0708268,-0.0317087 0.0708268,-0.0708268l0 -0.198276z"/>
  </g>
 </g>
</svg>
